<svg xmlns="http://www.w3.org/2000/svg" viewBox="0 0 250 250" preserveAspectRatio="true"><path fill="#314361" d="M125 145a19.874 19.874 0 0 1-7.785-1.571 19.929 19.929 0 0 1-6.357-4.286 19.933 19.933 0 0 1-4.287-6.358A19.874 19.874 0 0 1 105 125h5a14.9 14.9 0 0 0 4.394 10.607A14.9 14.9 0 0 0 125 140a14.9 14.9 0 0 0 10.607-4.393A14.9 14.9 0 0 0 140 125h5a19.89 19.89 0 0 1-1.571 7.786 19.932 19.932 0 0 1-4.287 6.358 19.929 19.929 0 0 1-6.357 4.286A19.874 19.874 0 0 1 125 145z"><animateTransform attributeName="transform" attributeType="XML" type="rotate" dur="1s" from="0 125 125" to="360 125 125" repeatCount="indefinite"/></path></svg>
