<svg height="70" viewBox="0 0 100 70" width="100" xmlns="http://www.w3.org/2000/svg" xmlns:xlink="http://www.w3.org/1999/xlink"><clipPath id="a"><path d="m0 0h100v70h-100z"/></clipPath><g clip-path="url(#a)"><path d="m97.94 10.956a12.529 12.529 0 0 0 -8.813-8.814c-7.827-2.142-39.127-2.142-39.127-2.142s-31.3 0-39.127 2.06a12.785 12.785 0 0 0 -8.813 8.9c-2.06 7.82-2.06 24.048-2.06 24.048s0 16.309 2.059 24.052a12.531 12.531 0 0 0 8.814 8.814c7.907 2.142 39.127 2.142 39.127 2.142s31.3 0 39.126-2.06a12.529 12.529 0 0 0 8.814-8.813c2.06-7.826 2.06-24.053 2.06-24.053s.082-16.31-2.06-24.134zm0 0" fill="#f00"/><path d="m204.969 132.468 26.031-14.992-26.029-14.992zm0 0" fill="#fff" transform="translate(-164.936 -82.468)"/></g></svg>